# xmcd CD database file
#
# Track frame offsets:
#	150
#	19292
#	36432
#	55557
#
# Disc length: 965 seconds
#
# Revision: 0
# Processed by: cddbd v1.5.1PL0 Copyright (c) Steve Scherf et al.
# Submitted via: CDex 1.51
#
DISCID=2c03c304
DTITLE=五味美保 - 僕だけのピンナップガール
DYEAR=1900
DGENRE=Pop
TTITLE0=僕だけのピンナップガール
TTITLE1=出会いはミステリー
TTITLE2=僕だけのピンナップガール（オリジナル・カラオケ）
TTITLE3=出会いはミステリー（オリジナル・カラオケ）
EXTD=
EXTT0=
EXTT1=
EXTT2=
EXTT3=
PLAYORDER=
